<svg width="106" height="110" viewBox="0 0 106 110" fill="none" xmlns="http://www.w3.org/2000/svg">
<rect x="0.667969" y="26.6664" width="80" height="88" rx="12" transform="rotate(-19.471 0.667969 26.6664)" fill="white"/>
<path d="M53.668 89C67.4751 89 78.668 88.3284 78.668 87.5C78.668 86.6716 67.4751 86 53.668 86C39.8609 86 28.668 86.6716 28.668 87.5C28.668 88.3284 39.8609 89 53.668 89Z" fill="#E2E8F0"/>
<path d="M70.5788 27.6698L68.764 26.9493L66.9492 26.2288L68.4767 25.0078L70.0042 23.7866L70.2915 25.7283L70.5788 27.6698Z" fill="#FFA800"/>
<path d="M36.981 36.4947L35.1663 35.7742L33.3516 35.0536L34.7925 34.0532L36.2335 33.0527L36.6073 34.7737L36.981 36.4947Z" fill="#E2E8F0"/>
<path d="M25.86 54.9288L24.0452 54.2083L22.2305 53.4879L23.758 52.2668L25.2855 51.0457L25.5727 52.9873L25.86 54.9288Z" fill="#E2E8F0"/>
<path d="M28.8302 75.7703L27.1163 76.7079L25.4023 77.6457L25.4522 75.6833L25.5021 73.7209L27.1661 74.7456L28.8302 75.7703Z" fill="#FFA800"/>
<path d="M31.168 32.8357L28.168 34.5081L25.168 36.1807L25.2552 32.6806L25.3426 29.1807L28.2552 31.0082L31.168 32.8357Z" fill="#FFA800"/>
<path d="M27.4661 84.4712C28.637 86.4803 30.9984 87.2758 30.9984 87.2758C30.9984 87.2758 31.4615 84.8138 30.2907 82.8046C29.1198 80.7954 26.7583 80 26.7583 80C26.7583 80 26.2952 82.462 27.4661 84.4712Z" fill="#2D73FB"/>
<path d="M27.6276 83.9054C29.6525 85.0339 30.5008 87.3897 30.5008 87.3897C30.5008 87.3897 28.0661 87.916 26.0412 86.7876C24.0163 85.6591 23.168 83.3032 23.168 83.3032C23.168 83.3032 25.6027 82.777 27.6276 83.9054Z" fill="#2D73FB"/>
<path d="M79.3523 84.7543C77.2119 85.6599 76.107 87.9088 76.107 87.9088C76.107 87.9088 78.4726 88.6894 80.6131 87.7839C82.7536 86.8783 83.8584 84.6294 83.8584 84.6294C83.8584 84.6294 81.4928 83.8487 79.3523 84.7543Z" fill="#2D73FB"/>
<path d="M79.9419 85.573C78.5543 87.4434 76.1156 87.9827 76.1156 87.9827C76.1156 87.9827 75.9267 85.4894 77.3143 83.6189C78.7019 81.7485 81.1406 81.2092 81.1406 81.2092C81.1406 81.2092 81.3296 83.7025 79.9419 85.573Z" fill="#6D94F6"/>
<path d="M53.2305 74.875C58.4081 74.875 62.6055 70.6777 62.6055 65.5C62.6055 60.3223 58.4081 56.125 53.2305 56.125C48.0528 56.125 43.8555 60.3223 43.8555 65.5C43.8555 70.6777 48.0528 74.875 53.2305 74.875Z" stroke="#718096" stroke-width="3" stroke-linecap="round" stroke-linejoin="round"/>
<path d="M53.2305 84.25C63.5858 84.25 71.9805 75.8553 71.9805 65.5C71.9805 55.1447 63.5858 46.75 53.2305 46.75C42.8751 46.75 34.4805 55.1447 34.4805 65.5C34.4805 75.8553 42.8751 84.25 53.2305 84.25Z" stroke="#718096" stroke-width="3" stroke-linecap="round" stroke-linejoin="round"/>
<path d="M53.2305 65.5L75.7305 43" stroke="#718096" stroke-width="3" stroke-linecap="round" stroke-linejoin="round"/>
<path d="M34.4805 86.125L40.943 79.6625" stroke="#718096" stroke-width="3" stroke-linecap="round" stroke-linejoin="round"/>
<path d="M71.982 86.1251L65.5195 79.6626" stroke="#718096" stroke-width="3" stroke-linecap="round" stroke-linejoin="round"/>
<path d="M80.9007 48.4375C80.4891 48.8496 79.9873 49.1601 79.4349 49.3445C78.8825 49.529 78.2947 49.5822 77.7182 49.5L70.2931 48.44L69.2332 41.015C69.1507 40.4387 69.2035 39.851 69.3875 39.2986C69.5715 38.7462 69.8815 38.2443 70.2931 37.8325L78.2482 29.875L80.5132 38.2175L88.8557 40.4825L80.9007 48.4375Z" stroke="#718096" stroke-width="3" stroke-linecap="round" stroke-linejoin="round"/>
</svg>
